
<svg width="129" height="27" viewBox="0 0 129 27" fill="none" xmlns="http://www.w3.org/2000/svg">
<path d="M1.58523 20H9.25568V18.5938H3.17045V6.90909H1.58523V20ZM15.6222 20.2045C17.6165 20.2045 19.0739 19.2074 19.5341 17.7244L18.0767 17.3153C17.6932 18.3381 16.8047 18.8494 15.6222 18.8494C13.8516 18.8494 12.6307 17.7053 12.5604 15.6023H19.6875V14.9631C19.6875 11.3068 17.5142 10.054 15.4688 10.054C12.8097 10.054 11.0455 12.1506 11.0455 15.1676C11.0455 18.1847 12.7841 20.2045 15.6222 20.2045ZM12.5604 14.2983C12.6626 12.7706 13.7429 11.4091 15.4688 11.4091C17.1051 11.4091 18.1534 12.6364 18.1534 14.2983H12.5604ZM24.8714 20.2301C26.5845 20.2301 27.4794 19.3097 27.7862 18.6705H27.8629V20H29.3714V13.5312C29.3714 10.4119 26.9936 10.054 25.7408 10.054C24.2578 10.054 22.5703 10.5653 21.8033 12.3551L23.2351 12.8665C23.5675 12.1506 24.3537 11.3835 25.7919 11.3835C27.179 11.3835 27.8629 12.1186 27.8629 13.3778V13.429C27.8629 14.1577 27.1214 14.0938 25.3317 14.3239C23.5099 14.5604 21.522 14.9631 21.522 17.2131C21.522 19.1307 23.005 20.2301 24.8714 20.2301ZM25.1016 18.875C23.8999 18.875 23.0305 18.3381 23.0305 17.2898C23.0305 16.1392 24.0788 15.7812 25.255 15.6278C25.8942 15.5511 27.6072 15.3722 27.8629 15.0653V16.446C27.8629 17.6733 26.8913 18.875 25.1016 18.875ZM32.1248 20H33.6333V13.7869C33.6333 12.4574 34.6816 11.4858 36.1135 11.4858C36.5162 11.4858 36.9316 11.5625 37.0339 11.5881V10.054C36.8613 10.0412 36.465 10.0284 36.2413 10.0284C35.0652 10.0284 34.0424 10.6932 33.6845 11.6648H33.5822V10.1818H32.1248V20ZM40.3306 14.0938C40.3306 12.3807 41.3917 11.4091 42.8363 11.4091C44.2362 11.4091 45.0863 12.3232 45.0863 13.8636V20H46.5948V13.7614C46.5948 11.2557 45.2589 10.054 43.271 10.054C41.788 10.054 40.8675 10.7188 40.4073 11.7159H40.2795V10.1818H38.8221V20H40.3306V14.0938ZM54.4139 20H55.9224V13.8636C55.9224 12.4254 56.9707 11.4091 58.1468 11.4091C59.291 11.4091 60.09 12.157 60.09 13.2756V20H61.6241V13.608C61.6241 12.3423 62.4167 11.4091 63.7974 11.4091C64.8713 11.4091 65.7917 11.978 65.7917 13.429V20H67.3002V13.429C67.3002 11.1214 66.0602 10.054 64.3088 10.054C62.9025 10.054 61.8734 10.6996 61.3684 11.7159H61.2662C60.7804 10.6676 59.9238 10.054 58.6326 10.054C57.3542 10.054 56.4082 10.6676 55.9991 11.7159H55.8713V10.1818H54.4139V20ZM74.0471 20.2045C76.7061 20.2045 78.4959 18.1847 78.4959 15.142C78.4959 12.0739 76.7061 10.054 74.0471 10.054C71.388 10.054 69.5982 12.0739 69.5982 15.142C69.5982 18.1847 71.388 20.2045 74.0471 20.2045ZM74.0471 18.8494C72.0272 18.8494 71.1067 17.1108 71.1067 15.142C71.1067 13.1733 72.0272 11.4091 74.0471 11.4091C76.0669 11.4091 76.9874 13.1733 76.9874 15.142C76.9874 17.1108 76.0669 18.8494 74.0471 18.8494ZM80.7987 20H82.3072V13.7869C82.3072 12.4574 83.3555 11.4858 84.7873 11.4858C85.19 11.4858 85.6055 11.5625 85.7077 11.5881V10.054C85.5352 10.0412 85.1388 10.0284 84.9151 10.0284C83.739 10.0284 82.7163 10.6932 82.3583 11.6648H82.256V10.1818H80.7987V20ZM91.3136 20.2045C93.3079 20.2045 94.7653 19.2074 95.2255 17.7244L93.7681 17.3153C93.3846 18.3381 92.4961 18.8494 91.3136 18.8494C89.543 18.8494 88.3221 17.7053 88.2518 15.6023H95.3789V14.9631C95.3789 11.3068 93.2056 10.054 91.1602 10.054C88.5011 10.054 86.7369 12.1506 86.7369 15.1676C86.7369 18.1847 88.4755 20.2045 91.3136 20.2045ZM88.2518 14.2983C88.354 12.7706 89.4343 11.4091 91.1602 11.4091C92.7965 11.4091 93.8448 12.6364 93.8448 14.2983H88.2518Z" fill="#424F7B"/>
<path fill-rule="evenodd" clip-rule="evenodd" d="M120.077 7.57733C120.403 7.25189 120.931 7.25189 121.256 7.57733L127.089 13.4107C127.415 13.7361 127.415 14.2637 127.089 14.5892L121.256 20.4225C120.931 20.7479 120.403 20.7479 120.077 20.4225C119.752 20.0971 119.752 19.5694 120.077 19.244L124.488 14.8333H111.5C111.04 14.8333 110.667 14.4602 110.667 13.9999C110.667 13.5397 111.04 13.1666 111.5 13.1666H124.488L120.077 8.75584C119.752 8.4304 119.752 7.90277 120.077 7.57733Z" fill="#424F7B"/>
</svg>